# xmcd
#
# Track frame offsets:
#	150
#	18954
#	40906
#	61304
#	77172
#	100628
#	122795
#	149339
#	166571
#	183755
#	201192
#	220812
#	238357
#	257552
#	276918
#	300722
#	321039
#	339240
#
# Disc length: 4607
#
# Revision: 3
# Processed by: cddbd v1.5.1PL0 Copyright (c) Steve Scherf et al.
# Submitted via: dBpowerAMP V4.0
# Normalized: r2:DSETVAR1,TDELIM( - )
#
DISCID=f611fd12
DTITLE=Various Artist - Chilled Ibiza 3 (UK)
DYEAR=2002
DGENRE=Dance
TTITLE0=X-Press 2 - Lazy
TTITLE1=Amillionsons - Misti Blu
TTITLE2=A Guy Called Gerald - Emotion Electric
TTITLE3=Royksopp - Eple
TTITLE4=Danmass - Happy Here
TTITLE5=Fila Brazillia - At home in space
TTITLE6=A Man Called Adam - Estele
TTITLE7=Thievery Corporation - Vivid
TTITLE8=The Aloof - Never get out the boat
TTITLE9=Harry Peat - Sweetest Dreams
TTITLE10=J-Walk - Soul Vibration
TTITLE11=Kinobe - Grass Roots Horizon
TTITLE12=The Karminsky Experience - Exploration
TTITLE13=Marvin Gaye - T plays it cool
TTITLE14=The Cinematic Orchestra Feat. Fontella Bass - All that you give
TTITLE15=Strange Cargo - She cries your name
TTITLE16=Ibizarre - Underwater world
TTITLE17=Freedom To Move - Freedom to move
EXTD=
EXTT0=
EXTT1=
EXTT2=
EXTT3=
EXTT4=
EXTT5=
EXTT6=
EXTT7=
EXTT8=
EXTT9=
EXTT10=
EXTT11=
EXTT12=
EXTT13=
EXTT14=
EXTT15=
EXTT16=
EXTT17=
PLAYORDER=
